<?xml version="1.0" encoding="UTF-8"?>
<svg xmlns="http://www.w3.org/2000/svg" xmlns:xlink="http://www.w3.org/1999/xlink" width="193pt" height="193pt" viewBox="0 0 193 193" version="1.1">
<g id="surface1">
<path style=" stroke:none;fill-rule:evenodd;fill:rgba(100%,100%,100%,0);fill-opacity:1;" d="M 0 0.242188 L 192.757813 0.242188 L 192.757813 193 L 0 193 L 0 0.242188 "/>
<path style=" stroke:none;fill-rule:evenodd;fill:rgb(13.699341%,12.199402%,12.5%);fill-opacity:1;" d="M 34.808594 115.175781 C 45.03125 115.175781 53.363281 106.839844 53.363281 96.621094 C 53.363281 86.402344 45.03125 78.070313 34.808594 78.070313 C 24.59375 78.070313 16.257813 86.402344 16.257813 96.621094 C 16.257813 106.839844 24.59375 115.175781 34.808594 115.175781 Z M 73.640625 94.152344 L 73.640625 98.660156 L 69.183594 98.660156 L 69.183594 111.824219 L 64.101563 111.824219 L 64.101563 98.660156 L 62.132813 98.660156 L 62.132813 94.152344 L 64.097656 94.152344 L 64.097656 87.828125 C 64.097656 83.808594 65.402344 81.484375 69.867188 81.082031 C 70.8125 80.996094 72.0625 81.003906 72.921875 81.003906 L 72.921875 85.046875 C 69.96875 85.046875 69.257813 85.792969 69.257813 87.824219 L 69.257813 94.152344 Z M 173.699219 91.285156 C 175.242188 91.285156 176.496094 90.027344 176.496094 88.488281 C 176.496094 86.945313 175.242188 85.6875 173.699219 85.6875 C 172.160156 85.6875 170.902344 86.945313 170.902344 88.488281 C 170.902344 90.027344 172.160156 91.285156 173.699219 91.285156 Z M 171.261719 111.824219 L 171.261719 94.128906 L 176.296875 94.128906 L 176.296875 111.824219 Z M 158.863281 105.726563 C 158.863281 107.070313 160.160156 108.695313 162.191406 108.695313 C 163.757813 108.695313 164.636719 108.265625 164.636719 107.0625 C 164.636719 102.898438 154.273438 105.945313 154.480469 98.789063 C 154.570313 95.636719 158.019531 93.109375 162.167969 93.109375 C 166.863281 93.109375 170.089844 96.136719 170.335938 99.546875 L 165.390625 99.546875 C 165.328125 99.1875 164.535156 96.902344 161.96875 96.785156 C 160.382813 96.710938 159.4375 97.457031 159.332031 98.394531 C 158.949219 101.703125 169.988281 99.734375 170.082031 106.417969 C 170.140625 110.425781 166.261719 112.308594 161.730469 112.308594 C 156.582031 112.308594 153.910156 109.28125 153.667969 105.714844 Z M 148.078125 100.234375 C 147.53125 98.390625 146.113281 97.714844 144.199219 97.714844 C 142.453125 97.714844 141.179688 98.566406 140.710938 100.234375 Z M 140.117188 104.042969 C 140.378906 106.480469 141.96875 108.203125 144.378906 108.246094 C 146.851563 108.289063 148.832031 106.234375 149.765625 104.714844 L 153.445313 107.101563 C 151.894531 110.746094 148.902344 112.867188 144.351563 112.695313 C 138.257813 112.46875 134.84375 107.871094 134.800781 102.71875 C 134.753906 97.589844 138.066406 93.441406 144.171875 93.394531 C 150.734375 93.34375 153.792969 98.089844 153.792969 104.042969 Z M 112.890625 94.128906 L 112.890625 95.589844 C 113.992188 93.980469 115.441406 93.726563 117.28125 93.726563 C 119.117188 93.726563 120.714844 93.945313 122.117188 96.207031 C 123.269531 94.316406 124.96875 93.710938 127.113281 93.710938 C 131.585938 93.710938 133.804688 97.222656 133.804688 101.691406 L 133.804688 111.824219 L 129.03125 111.824219 L 129 101.75 C 128.992188 98.980469 128.101563 97.917969 126.144531 97.917969 C 124.1875 97.917969 123.320313 99.464844 123.328125 101.570313 L 123.359375 111.824219 L 118.722656 111.824219 L 118.722656 101.75 C 118.722656 99.421875 117.753906 97.933594 115.769531 97.917969 C 113.78125 97.902344 112.84375 99.085938 112.84375 101.738281 L 112.84375 111.824219 L 108.308594 111.824219 L 108.308594 94.128906 Z M 91.101563 103.050781 C 91.101563 105.914063 93.28125 108.269531 96.1875 108.269531 C 98.859375 108.269531 101.066406 105.648438 101.066406 103.019531 C 101.066406 100.316406 98.917969 98.007813 96.121094 98.007813 C 93.328125 98.007813 91.101563 100.269531 91.101563 103.050781 Z M 101.28125 111.824219 L 101.28125 109.585938 C 100.097656 111.691406 97.855469 112.238281 95.589844 112.238281 C 90.175781 112.238281 86.289063 108.261719 86.289063 102.894531 C 86.289063 97.722656 90.273438 93.746094 95.492188 93.886719 C 97.75 93.945313 99.949219 94.410156 101.230469 96.390625 L 101.230469 94.128906 L 105.882813 94.128906 L 105.882813 111.824219 Z M 86.171875 98.824219 C 85.46875 98.097656 84.429688 97.46875 83.160156 97.457031 C 81.886719 97.441406 80.027344 98.425781 80.027344 102.515625 L 80.027344 111.824219 L 75.003906 111.824219 L 75.003906 94.238281 L 79.761719 94.238281 L 79.761719 95.847656 C 80.171875 94.46875 81.882813 93.804688 83.261719 93.796875 C 84.644531 93.789063 85.117188 94.027344 86.171875 94.398438 Z M 21.410156 95.988281 L 27.140625 95.988281 C 27.773438 94.367188 28.605469 92.800781 29.597656 91.167969 C 32.183594 86.90625 36.605469 82.523438 39.8125 82.535156 C 46.75 82.558594 35.429688 94.886719 33.140625 95.988281 L 50.402344 95.988281 L 48.683594 98.28125 L 29.546875 98.28125 C 32.925781 101.308594 34.488281 104.457031 34.519531 106.769531 C 34.554688 109.332031 33.480469 111.273438 31.117188 111.273438 C 28.757813 111.273438 26.132813 108.792969 25.863281 104.625 C 25.710938 102.261719 25.914063 100.203125 26.402344 98.28125 C 24.902344 97.363281 23.246094 96.753906 21.433594 96.464844 Z M 28.726563 100.628906 C 31.4375 102.417969 33.847656 109.636719 31.257813 109.636719 C 27.882813 109.640625 27.53125 102.707031 28.726563 100.628906 Z M 30.921875 94.546875 C 31.894531 91.074219 37.996094 84.273438 40.203125 84.070313 C 42.046875 83.898438 35.359375 92.554688 30.921875 94.546875 Z M 34.808594 113.636719 C 44.183594 113.636719 51.828125 105.992188 51.828125 96.621094 C 51.828125 87.25 44.183594 79.605469 34.808594 79.605469 C 25.4375 79.605469 17.792969 87.25 17.792969 96.621094 C 17.792969 105.992188 25.4375 113.636719 34.808594 113.636719 "/>
</g>
</svg>
